<?xml version="1.0" encoding="UTF-8"?>
<svg
        xmlns="http://www.w3.org/2000/svg"
        width="770.90155"
        height="136.28662"
        viewBox="0 0 770.90155 136.28662"
        version="1.1"
        id="svg4666">

  <defs id="defs4668">
    <clipPath id="clipPath4143" clipPathUnits="userSpaceOnUse">
      <path d="m 0,595.276 297.638,0 L 297.638,0 0,0 0,595.276 z" id="path4145"/>
    </clipPath>

    <linearGradient id="linearGradient4159"
                    gradientUnits="userSpaceOnUse"
                    gradientTransform="matrix(0,22.059967,22.059967,0,155.56247,30.61705)"
                    x1="0" y1="0" x2="1" y2="0" spreadMethod="pad">
      <stop offset="0" style="stop-opacity:1;stop-color:#13244b"/>
      <stop offset="0.539993" style="stop-opacity:1;stop-color:#234da7"/>
      <stop offset="1" style="stop-opacity:1;stop-color:#234da7"/>
    </linearGradient>

    <clipPath id="clipPath4175" clipPathUnits="userSpaceOnUse">
      <path d="m 152.481,4.739 141.486,0 0,51.01 -141.486,0 0,-51.01 z" id="path4177"/>
    </clipPath>

    <linearGradient id="linearGradient4193"
                    gradientUnits="userSpaceOnUse"
                    gradientTransform="matrix(0,19.758636,19.758636,0,237.86998,30.616989)"
                    x1="0" y1="0" x2="1" y2="0" spreadMethod="pad">
      <stop offset="0" style="stop-opacity:1;stop-color:#f35e19"/>
      <stop offset="0.72" style="stop-opacity:1;stop-color:#f68712"/>
      <stop offset="1" style="stop-opacity:1;stop-color:#f68712"/>
    </linearGradient>

    <clipPath id="clipPath4209" clipPathUnits="userSpaceOnUse">
      <path d="m 152.481,4.739 141.486,0 0,51.01 -141.486,0 0,-51.01 z" id="path4211"/>
    </clipPath>
  </defs>

  <g id="layer1" transform="translate(63.205818,-361.64061)">
    <g transform="matrix(6.1474275,0,0,-6.1474275,-1019.1769,685.80368)" id="g4137">
      <g id="g4139">
        <g id="g4141" clip-path="url(#clipPath4143)">
          <g id="g4147">
            <g id="g4149">
              <g id="g4155">
                <g id="g4157">
                  <!-- Füllung: Blauverlauf -->
                  <path id="path4169"
                        d="m 170.007,52.608 -7.164,-8.532 -2.244,0 0,8.532 -4.967,0 0,-21.598 4.967,0 0,9.669 1.833,-0.001 6.663,-9.668 5.788,0 -8.01,11.232 8.406,10.366 -5.272,0 z m 57.455,-21.537 4.622,0 0,21.505 -4.622,0 0,-21.505 z m -35.038,21.504 0,-20.792 c 1.149,-0.629 3.254,-1.097 6.156,-1.097 l 0,0 c 5.663,0 8.81,3.041 8.81,8.165 l 0,0 c 0,4.356 -2.845,7.314 -6.949,7.314 l 0,0 c -1.56,0 -2.627,-0.274 -3.42,-0.575 l 0,0 0,6.985 -4.597,0 z m 4.597,-19.067 0,9.891 c 0.546,0.246 1.203,0.355 2.078,0.355 l 0,0 c 2.6,0 3.585,-2.191 3.585,-5.149 l 0,0 c 0,-3.26 -1.259,-5.398 -3.859,-5.398 l 0,0 c -0.82,0 -1.394,0.109 -1.804,0.301 m 12.612,4.987 c 0,-4.795 3.038,-7.809 8.372,-7.809 l 0,0 c 2.875,0 4.899,0.576 6.129,1.097 l 0,0 -0.957,2.574 c -0.93,-0.41 -2.653,-0.821 -4.678,-0.821 l 0,0 c -2.627,0 -4.078,1.179 -4.433,3.506 l 0,0 10.644,1.288 c 0,4.986 -2.38,7.89 -7.305,7.89 l 0,0 c -4.898,0 -7.772,-3.041 -7.772,-7.725 m 7.579,5.286 c 1.942,0 3.12,-1.26 3.12,-3.889 l 0,0 -6.596,-0.85 c -0.134,3.178 1.424,4.739 3.476,4.739 m -41.232,1.343 0.984,-2.355 c 1.122,0.465 2.927,0.876 4.542,0.876 l 0,0 c 1.942,0 3.229,-0.493 3.229,-2.137 l 0,0 0,-0.74 c -5.28,-0.438 -9.824,-1.478 -9.824,-5.396 l 0,0 c 0,-3.014 2.519,-4.686 7.471,-4.686 l 0,0 c 2.927,0 5.28,0.439 6.703,1.097 l 0,0 0,9.013 c 0,3.972 -2.817,5.424 -6.703,5.424 l 0,0 c -2.927,0 -5.2,-0.63 -6.402,-1.096 m 3.31,-9.588 c 0,2.521 2.216,3.069 5.445,3.369 l 0,0 0,-5.534 c -0.465,-0.219 -1.176,-0.383 -2.08,-0.383 l 0,0 c -2.079,0 -3.365,0.767 -3.365,2.548"
                        style="fill:url(#linearGradient4159);stroke:none"/>
                </g>
              </g>
            </g>
          </g>

          <g id="g4171">
            <g id="g4173" clip-path="url(#clipPath4175)">
              <path id="path4179"
                    d="m 232.084,52.576 -4.622,0 0,-21.505 4.622,0 0,21.505 z M 214.066,37.042 224.71,38.33 c 0,4.986 -2.381,7.89 -7.305,7.89 -4.898,0 -7.771,-3.041 -7.771,-7.725 0,-4.795 3.037,-7.808 8.371,-7.808 2.875,0 4.899,0.575 6.13,1.096 l -0.958,2.574 c -0.93,-0.41 -2.652,-0.822 -4.678,-0.822 -2.627,0 -4.078,1.18 -4.433,3.507 z m -0.329,2 c -0.136,3.178 1.424,4.739 3.475,4.739 1.942,0 3.12,-1.259 3.12,-3.889 l -6.595,-0.85 z m -6.347,-0.191 c 0,4.356 -2.846,7.315 -6.95,7.315 -1.559,0 -2.626,-0.275 -3.42,-0.577 l 0,6.987 -4.596,0 0,-20.793 c 1.149,-0.63 3.254,-1.096 6.156,-1.096 5.663,0 8.81,3.04 8.81,8.164 z m -4.706,-0.246 c 0,-3.26 -1.259,-5.398 -3.859,-5.398 -0.821,0 -1.394,0.109 -1.805,0.301 l 0,9.891 c 0.547,0.245 1.204,0.355 2.079,0.355 2.6,0 3.585,-2.191 3.585,-5.149 z m -20.302,-7.918 c 2.928,0 5.28,0.438 6.704,1.096 l 0,9.013 c 0,3.972 -2.818,5.424 -6.704,5.424 -2.927,0 -5.2,-0.631 -6.403,-1.096 l 0.985,-2.355 c 1.122,0.465 2.927,0.875 4.542,0.875 1.942,0 3.229,-0.492 3.229,-2.136 l 0,-0.74 c -5.28,-0.438 -9.824,-1.478 -9.824,-5.397 0,-3.013 2.519,-4.684 7.471,-4.684 z m 0.273,2.301 c -2.079,0 -3.365,0.767 -3.365,2.548 0,2.52 2.216,3.069 5.445,3.369 l 0,-5.534 c -0.465,-0.219 -1.176,-0.383 -2.08,-0.383 z m -15.781,9.254 8.405,10.365 -5.271,0 -7.165,-8.531 -2.244,0 0,8.531 -4.967,0 0,-21.597 4.967,0 0,9.669 1.833,-0.001 6.663,-9.667 5.787,0 -8.008,11.231 z"
                    style="fill:#FFFFFF;stroke:#FFFFFF;stroke-width:0.249;stroke-linecap:butt;stroke-linejoin:miter;stroke-miterlimit:10;stroke-opacity:1;stroke-dasharray:none"/>
            </g>
          </g>

          <g id="g4181">
            <g id="g4183">
              <g id="g4189">
                <g id="g4191">
                  <path id="path4203"
                        d="m 237.939,49.21 0,-17.426 c 1.532,-0.659 3.944,-1.098 6.926,-1.098 l 0,0 c 5.42,0 8.733,1.809 8.733,5.563 l 0,0 c 0,2.63 -2.547,4.301 -4.573,4.741 l 0,0 0,0.054 c 1.81,0.357 3.916,1.672 3.916,4.165 l 0,0 c 0,2.822 -2.601,5.096 -8.322,5.096 l 0,0 c -2.874,0 -5.231,-0.465 -6.68,-1.095 m 4.653,-7.289 0,5.645 c 0.576,0.192 1.26,0.301 2.11,0.301 l 0,0 c 2.433,0 3.585,-0.987 3.585,-2.932 l 0,0 c 0,-2.055 -1.096,-3.041 -4.38,-3.041 l 0,0 c -0.438,0 -1.014,0 -1.315,0.027 m 0,-8.303 0,6.194 c 0.329,0.027 0.849,0.054 1.287,0.054 l 0,0 c 3.56,0 4.874,-1.206 4.874,-3.48 l 0,0 c 0,-2.247 -1.535,-3.097 -3.943,-3.097 l 0,0 c -0.958,0 -1.725,0.138 -2.218,0.329 m 33.704,16.304 -2.958,-13.481 -0.056,0 -3.503,13.481 -3.394,0 -3.558,-13.481 -0.03,0 -2.9,13.481 -4.873,0 5.201,-18.851 4.188,0 3.493,11.867 -0.019,0.065 0.038,0 -0.019,-0.065 3.516,-11.867 4.189,0 5.175,18.851 -4.49,0 z"
                        style="fill:#FFFFFF;stroke:none"/>
                </g>
              </g>
            </g>
          </g>

          <g id="g4205">
            <g id="g4207" clip-path="url(#clipPath4209)">
              <!-- Konturlinien (orange) -->
              <g id="g4213" transform="translate(280.7853,49.9223)">
                <path id="path4215"
                      d="m 0,0 -4.489,0 -2.958,-13.481 -0.056,0 -3.504,13.481 -3.394,0 -3.558,-13.481 -0.029,0 -2.901,13.481 -4.872,0 5.201,-18.852 4.188,0 3.492,11.868 -0.019,0.064 0.038,0 -0.019,-0.064 3.517,-11.868 4.188,0 L 0,0 z m -31.761,-8.933 0,0.055 c 1.81,0.356 3.917,1.671 3.917,4.165 0,2.822 -2.601,5.097 -8.322,5.097 -2.874,0 -5.231,-0.466 -6.68,-1.096 l 0,-17.427 c 1.532,-0.659 3.943,-1.097 6.926,-1.097 5.419,0 8.733,1.808 8.733,5.563 0,2.63 -2.547,4.301 -4.574,4.74 z m -0.738,3.946 c 0,-2.055 -1.095,-3.041 -4.379,-3.041 -0.438,0 -1.014,0 -1.315,0.027 l 0,5.645 c 0.576,0.192 1.26,0.3 2.11,0.3 2.433,0 3.584,-0.986 3.584,-2.931 z m 0.466,-8.549 c 0,-2.247 -1.534,-3.097 -3.943,-3.097 -0.957,0 -1.723,0.137 -2.217,0.329 l 0,6.194 c 0.328,0.027 0.849,0.054 1.287,0.054 3.56,0 4.873,-1.206 4.873,-3.48 z"
                      style="fill:#FFFFFF;stroke:#FFFFFF;stroke-width:0.249;stroke-linecap:butt;stroke-linejoin:miter;stroke-miterlimit:10;stroke-opacity:1;stroke-dasharray:none"/>
              </g>
            </g>
          </g>

        </g>
      </g>
    </g>
  </g>
</svg>
