<svg id="Gruppe_1264" data-name="Gruppe 1264" xmlns="http://www.w3.org/2000/svg" xmlns:xlink="http://www.w3.org/1999/xlink" width="201" height="64.326" viewBox="0 0 201 64.326">
  <defs>
    <clipPath id="clip-path">
      <rect id="Rechteck_2113" width="201" height="64.326" fill="none"/>
    </clipPath>
  </defs>
  <g id="Gruppe_1263" clip-path="url(#clip-path)">
    <path id="Pfad_956" d="M208.779,61.566a15.123,15.123,0,0,0,1.465,1.368,12.4,12.4,0,0,0,1.874,1.274,10.9,10.9,0,0,0,2.257.936,9.222,9.222,0,0,0,2.619.361,5.783,5.783,0,0,0,1.632-.241,5.31,5.31,0,0,0,1.489-.7,3.757,3.757,0,0,0,1.081-1.105A2.7,2.7,0,0,0,221.6,62a3.051,3.051,0,0,0-1.729-2.763,23.687,23.687,0,0,0-5.476-1.945,14.52,14.52,0,0,1-3.387-1.249,10.628,10.628,0,0,1-2.689-1.969,8.358,8.358,0,0,1-1.753-2.642,8.483,8.483,0,0,1-.623-3.314,10.009,10.009,0,0,1,.72-3.794,8.8,8.8,0,0,1,2.185-3.146,10.532,10.532,0,0,1,3.651-2.162,15.174,15.174,0,0,1,5.163-.793,16.7,16.7,0,0,1,4.323.5,15.613,15.613,0,0,1,3.194,1.2,11.087,11.087,0,0,1,2.161,1.44c.56.5.986.889,1.273,1.178l-4.178,4.611q-.53-.432-1.225-.937a11.275,11.275,0,0,0-1.561-.937,10.748,10.748,0,0,0-1.9-.72,8.1,8.1,0,0,0-2.185-.288,4.9,4.9,0,0,0-1.513.239,5.226,5.226,0,0,0-1.345.649,3.415,3.415,0,0,0-.96.96,2.116,2.116,0,0,0-.361,1.176,3,3,0,0,0,1.73,2.642,16.868,16.868,0,0,0,4.755,1.681,21.293,21.293,0,0,1,3.482,1.176,11.435,11.435,0,0,1,3.05,1.946,9.015,9.015,0,0,1,2.161,2.955,10.031,10.031,0,0,1,.816,4.251,8.442,8.442,0,0,1-.96,3.986,10.13,10.13,0,0,1-2.619,3.171,12.277,12.277,0,0,1-3.889,2.09,15.221,15.221,0,0,1-4.827.743,19.37,19.37,0,0,1-4.372-.456,17.739,17.739,0,0,1-3.554-1.2,16.081,16.081,0,0,1-2.859-1.7,15.693,15.693,0,0,1-2.185-1.969Z" transform="translate(-122.643 -22.965)" fill="#FFFFFF"/>
    <path id="Pfad_957" d="M267.76,64.213h7.11l3.938,14.458,4.37-14.458H288.7l4.42,14.458,3.938-14.458h6.965l-7.733,22.528h-6.245l-4.226-12.585-4.179,12.585h-6.147Z" transform="translate(-160.88 -38.581)" fill="#FFFFFF"/>
    <path id="Pfad_958" d="M365.215,40.387h12.009a15.939,15.939,0,0,1,5.043.7,9.634,9.634,0,0,1,3.363,1.85A6.754,6.754,0,0,1,387.5,45.6a8.762,8.762,0,0,1,.576,3.145,6.318,6.318,0,0,1-.551,2.714,8.428,8.428,0,0,1-1.3,2.018,6.384,6.384,0,0,1-1.586,1.321,5.861,5.861,0,0,1-1.416.623,10.762,10.762,0,0,1,1.991.7,7.862,7.862,0,0,1,2.138,1.442,7.944,7.944,0,0,1,1.7,2.353,7.5,7.5,0,0,1,.7,3.339,9.179,9.179,0,0,1-.889,4.226,7.6,7.6,0,0,1-2.5,2.833,11.014,11.014,0,0,1-3.939,1.61,24.818,24.818,0,0,1-5.211.5H365.215ZM376.55,53.212a6.809,6.809,0,0,0,1.611-.192,4.174,4.174,0,0,0,1.392-.6,3.143,3.143,0,0,0,.986-1.1,3.5,3.5,0,0,0,.385-1.705,3.6,3.6,0,0,0-.385-1.752,3.094,3.094,0,0,0-1.009-1.106,4.174,4.174,0,0,0-1.417-.575,7.486,7.486,0,0,0-1.562-.169h-4.273v7.2Zm.433,13.641a14.116,14.116,0,0,0,1.729-.119,5.1,5.1,0,0,0,1.777-.553,3.759,3.759,0,0,0,1.37-1.248,3.991,3.991,0,0,0,.553-2.257,3.6,3.6,0,0,0-1.873-3.388,5.647,5.647,0,0,0-1.778-.624,10.415,10.415,0,0,0-1.777-.166h-4.706v8.357Z" transform="translate(-219.435 -24.266)" fill="#FFFFFF"/>
    <path id="Pfad_959" d="M433.761,40.388h7.252V53.165l10.712-12.777h8.4l-11,12.488,12.488,19.55h-8.79l-8.55-13.979-3.267,3.65V72.426h-7.252Z" transform="translate(-260.62 -24.266)" fill="#FFFFFF"/>
    <path id="Pfad_960" d="M64.325,32.163A32.162,32.162,0,1,1,32.161,0,32.164,32.164,0,0,1,64.325,32.163" fill="#FFFFFF"/>
    <path id="Pfad_961" d="M67.294,33c-1.819-3.224-4.54-5.6-8.065-8.166a40.773,40.773,0,0,1-7.373-6.968c-.166-.2-.332-.418-.5-.638a13.931,13.931,0,0,0-1.337-1.556,6.092,6.092,0,0,0-3.7-1.72,6.1,6.1,0,0,0-3.7,1.721h0a14.121,14.121,0,0,0-1.339,1.558c-.17.22-.336.436-.5.635a40.754,40.754,0,0,1-7.373,6.969C29.881,27.4,27.16,29.777,25.341,33a14.985,14.985,0,0,0-1.391,10.58c.649,2.971,2.551,5.9,5.652,8.69,1.184,1.068,2.455,2.041,3.684,2.982a47.886,47.886,0,0,1,4.38,3.641c1.382,1.349,2.617,2.78,3.637,3.994a27.222,27.222,0,0,1,1.706,2.479l.077.126h0a3.773,3.773,0,0,0,3.233,1.648,3.633,3.633,0,0,0,3.8-3.693l0-17.682a3.806,3.806,0,0,0-7.607.019v7.224c-.066-.064-.133-.129-.2-.192a47.5,47.5,0,0,0-4.134-3.4,39.173,39.173,0,0,1-4.721-4,7.553,7.553,0,0,1-2.07-7.3c.669-2.567,3.2-4.735,5.58-6.518A57.089,57.089,0,0,0,46,23.443c.107-.123.213-.247.321-.376.107.127.212.251.321.376a56.993,56.993,0,0,0,9.025,8.166c2.383,1.782,4.91,3.95,5.579,6.518a7.557,7.557,0,0,1-2.07,7.3,25.477,25.477,0,0,1-2.311,2.115l-.043.038a3.486,3.486,0,0,0-.836,3.945,4.107,4.107,0,0,0,3.656,2.548,3.529,3.529,0,0,0,2.326-.9l.455-.406a27.738,27.738,0,0,0,4.538-5.057c.226-.366.414-.694.587-1.024a12.629,12.629,0,0,0,1.14-3.1A14.983,14.983,0,0,0,67.294,33" transform="translate(-14.156 -8.383)" fill="none"/>
  </g>
</svg>
